<mxfile host="app.diagrams.net" agent="Mozilla/5.0 (Windows NT 10.0; Win64; x64) AppleWebKit/537.36 (KHTML, like Gecko) Chrome/127.0.0.0 Safari/537.36 Edg/127.0.0.0" version="24.7.7">
  <diagram name="Страница — 1" id="k4b6k9MBHYwq-RSSJ0zr">
    <mxGraphModel dx="1099" dy="755" grid="1" gridSize="10" guides="1" tooltips="1" connect="1" arrows="1" fold="1" page="1" pageScale="1" pageWidth="827" pageHeight="1169" math="0" shadow="0">
      <root>
        <mxCell id="0" />
        <mxCell id="1" parent="0" />
        <mxCell id="O2oi8l6Wpi41ya5WLqiR-3" style="edgeStyle=orthogonalEdgeStyle;rounded=0;orthogonalLoop=1;jettySize=auto;html=1;entryX=0.5;entryY=0;entryDx=0;entryDy=0;" edge="1" parent="1" source="O2oi8l6Wpi41ya5WLqiR-4">
          <mxGeometry relative="1" as="geometry">
            <mxPoint x="414" y="230" as="targetPoint" />
          </mxGeometry>
        </mxCell>
        <mxCell id="O2oi8l6Wpi41ya5WLqiR-1" value="Start" style="ellipse;whiteSpace=wrap;html=1;" vertex="1" parent="1">
          <mxGeometry x="354" y="50" width="120" height="80" as="geometry" />
        </mxCell>
        <mxCell id="O2oi8l6Wpi41ya5WLqiR-5" value="" style="edgeStyle=orthogonalEdgeStyle;rounded=0;orthogonalLoop=1;jettySize=auto;html=1;entryX=0.5;entryY=0;entryDx=0;entryDy=0;" edge="1" parent="1" source="O2oi8l6Wpi41ya5WLqiR-1" target="O2oi8l6Wpi41ya5WLqiR-4">
          <mxGeometry relative="1" as="geometry">
            <mxPoint x="414" y="190" as="sourcePoint" />
            <mxPoint x="414" y="230" as="targetPoint" />
          </mxGeometry>
        </mxCell>
        <mxCell id="O2oi8l6Wpi41ya5WLqiR-13" value="" style="edgeStyle=orthogonalEdgeStyle;rounded=0;orthogonalLoop=1;jettySize=auto;html=1;" edge="1" parent="1" source="O2oi8l6Wpi41ya5WLqiR-4" target="O2oi8l6Wpi41ya5WLqiR-8">
          <mxGeometry relative="1" as="geometry" />
        </mxCell>
        <mxCell id="O2oi8l6Wpi41ya5WLqiR-4" value="input = Console.ReadLine()&lt;div&gt;initialArray = input.Split(&#39;,&#39;)&lt;br&gt;count = 0&lt;br&gt;&lt;/div&gt;" style="rounded=1;whiteSpace=wrap;html=1;" vertex="1" parent="1">
          <mxGeometry x="311" y="150" width="206" height="60" as="geometry" />
        </mxCell>
        <mxCell id="O2oi8l6Wpi41ya5WLqiR-10" style="edgeStyle=orthogonalEdgeStyle;rounded=0;orthogonalLoop=1;jettySize=auto;html=1;entryX=0;entryY=0.5;entryDx=0;entryDy=0;" edge="1" parent="1" source="O2oi8l6Wpi41ya5WLqiR-8" target="O2oi8l6Wpi41ya5WLqiR-9">
          <mxGeometry relative="1" as="geometry">
            <Array as="points">
              <mxPoint x="580" y="350" />
              <mxPoint x="580" y="350" />
            </Array>
          </mxGeometry>
        </mxCell>
        <mxCell id="O2oi8l6Wpi41ya5WLqiR-17" style="edgeStyle=orthogonalEdgeStyle;rounded=0;orthogonalLoop=1;jettySize=auto;html=1;entryX=0.5;entryY=0;entryDx=0;entryDy=0;" edge="1" parent="1" source="O2oi8l6Wpi41ya5WLqiR-8" target="O2oi8l6Wpi41ya5WLqiR-16">
          <mxGeometry relative="1" as="geometry" />
        </mxCell>
        <mxCell id="O2oi8l6Wpi41ya5WLqiR-8" value="for i=0; i &amp;lt;&lt;font color=&quot;#9cdcfe&quot;&gt;&amp;nbsp;&lt;/font&gt;initialArray.lenght&lt;span style=&quot;background-color: initial;&quot;&gt;; i++&lt;/span&gt;" style="rhombus;whiteSpace=wrap;html=1;" vertex="1" parent="1">
          <mxGeometry x="291" y="310" width="246" height="80" as="geometry" />
        </mxCell>
        <mxCell id="O2oi8l6Wpi41ya5WLqiR-22" style="edgeStyle=orthogonalEdgeStyle;rounded=0;orthogonalLoop=1;jettySize=auto;html=1;" edge="1" parent="1" source="O2oi8l6Wpi41ya5WLqiR-9" target="O2oi8l6Wpi41ya5WLqiR-20">
          <mxGeometry relative="1" as="geometry" />
        </mxCell>
        <mxCell id="O2oi8l6Wpi41ya5WLqiR-26" style="edgeStyle=orthogonalEdgeStyle;rounded=0;orthogonalLoop=1;jettySize=auto;html=1;entryX=0.5;entryY=0;entryDx=0;entryDy=0;" edge="1" parent="1" source="O2oi8l6Wpi41ya5WLqiR-9" target="O2oi8l6Wpi41ya5WLqiR-8">
          <mxGeometry relative="1" as="geometry">
            <Array as="points">
              <mxPoint x="800" y="350" />
              <mxPoint x="800" y="240" />
              <mxPoint x="414" y="240" />
            </Array>
          </mxGeometry>
        </mxCell>
        <mxCell id="O2oi8l6Wpi41ya5WLqiR-9" value="if&amp;nbsp;initialArray[i].lenght &amp;lt;=3" style="rounded=1;whiteSpace=wrap;html=1;" vertex="1" parent="1">
          <mxGeometry x="590" y="320" width="180" height="60" as="geometry" />
        </mxCell>
        <mxCell id="O2oi8l6Wpi41ya5WLqiR-11" value="Да" style="text;html=1;align=center;verticalAlign=middle;whiteSpace=wrap;rounded=0;" vertex="1" parent="1">
          <mxGeometry x="670" y="290" width="60" height="30" as="geometry" />
        </mxCell>
        <mxCell id="O2oi8l6Wpi41ya5WLqiR-19" style="edgeStyle=orthogonalEdgeStyle;rounded=0;orthogonalLoop=1;jettySize=auto;html=1;entryX=0.5;entryY=0;entryDx=0;entryDy=0;" edge="1" parent="1" source="O2oi8l6Wpi41ya5WLqiR-16" target="O2oi8l6Wpi41ya5WLqiR-18">
          <mxGeometry relative="1" as="geometry" />
        </mxCell>
        <mxCell id="O2oi8l6Wpi41ya5WLqiR-16" value="resultArray = new string[count]&lt;div&gt;index = 0&lt;br&gt;&lt;/div&gt;" style="rounded=1;whiteSpace=wrap;html=1;" vertex="1" parent="1">
          <mxGeometry x="306" y="420" width="216" height="60" as="geometry" />
        </mxCell>
        <mxCell id="O2oi8l6Wpi41ya5WLqiR-28" style="edgeStyle=orthogonalEdgeStyle;rounded=0;orthogonalLoop=1;jettySize=auto;html=1;entryX=0;entryY=0.5;entryDx=0;entryDy=0;" edge="1" parent="1" source="O2oi8l6Wpi41ya5WLqiR-18" target="O2oi8l6Wpi41ya5WLqiR-27">
          <mxGeometry relative="1" as="geometry" />
        </mxCell>
        <mxCell id="O2oi8l6Wpi41ya5WLqiR-18" value="for i = 0; i &amp;lt; inputArray.lenght; i++" style="rhombus;whiteSpace=wrap;html=1;" vertex="1" parent="1">
          <mxGeometry x="246" y="520" width="336" height="80" as="geometry" />
        </mxCell>
        <mxCell id="O2oi8l6Wpi41ya5WLqiR-23" style="edgeStyle=orthogonalEdgeStyle;rounded=0;orthogonalLoop=1;jettySize=auto;html=1;entryX=0.5;entryY=0;entryDx=0;entryDy=0;" edge="1" parent="1" source="O2oi8l6Wpi41ya5WLqiR-20" target="O2oi8l6Wpi41ya5WLqiR-8">
          <mxGeometry relative="1" as="geometry">
            <Array as="points">
              <mxPoint x="414" y="270" />
            </Array>
          </mxGeometry>
        </mxCell>
        <mxCell id="O2oi8l6Wpi41ya5WLqiR-20" value="count++" style="rounded=0;whiteSpace=wrap;html=1;" vertex="1" parent="1">
          <mxGeometry x="645" y="260" width="70" height="30" as="geometry" />
        </mxCell>
        <mxCell id="O2oi8l6Wpi41ya5WLqiR-24" value="Нет" style="text;html=1;align=center;verticalAlign=middle;whiteSpace=wrap;rounded=0;" vertex="1" parent="1">
          <mxGeometry x="770" y="350" width="60" height="30" as="geometry" />
        </mxCell>
        <mxCell id="O2oi8l6Wpi41ya5WLqiR-29" style="edgeStyle=orthogonalEdgeStyle;rounded=0;orthogonalLoop=1;jettySize=auto;html=1;" edge="1" parent="1" source="O2oi8l6Wpi41ya5WLqiR-27">
          <mxGeometry relative="1" as="geometry">
            <mxPoint x="730" y="630" as="targetPoint" />
          </mxGeometry>
        </mxCell>
        <mxCell id="O2oi8l6Wpi41ya5WLqiR-34" style="edgeStyle=orthogonalEdgeStyle;rounded=0;orthogonalLoop=1;jettySize=auto;html=1;entryX=0.5;entryY=0;entryDx=0;entryDy=0;" edge="1" parent="1" source="O2oi8l6Wpi41ya5WLqiR-27" target="O2oi8l6Wpi41ya5WLqiR-18">
          <mxGeometry relative="1" as="geometry">
            <Array as="points">
              <mxPoint x="870" y="560" />
              <mxPoint x="870" y="500" />
              <mxPoint x="414" y="500" />
            </Array>
          </mxGeometry>
        </mxCell>
        <mxCell id="O2oi8l6Wpi41ya5WLqiR-27" value="if&amp;nbsp;inputArray.lenght &amp;lt;= 3" style="rounded=1;whiteSpace=wrap;html=1;" vertex="1" parent="1">
          <mxGeometry x="630" y="530" width="200" height="60" as="geometry" />
        </mxCell>
        <mxCell id="O2oi8l6Wpi41ya5WLqiR-36" style="edgeStyle=orthogonalEdgeStyle;rounded=0;orthogonalLoop=1;jettySize=auto;html=1;entryX=0.5;entryY=0;entryDx=0;entryDy=0;" edge="1" parent="1" source="O2oi8l6Wpi41ya5WLqiR-30" target="O2oi8l6Wpi41ya5WLqiR-18">
          <mxGeometry relative="1" as="geometry">
            <Array as="points">
              <mxPoint x="870" y="660" />
              <mxPoint x="870" y="500" />
              <mxPoint x="414" y="500" />
            </Array>
          </mxGeometry>
        </mxCell>
        <mxCell id="O2oi8l6Wpi41ya5WLqiR-30" value="resultArray[index] = inputArray[i]&lt;br&gt;index++" style="rounded=0;whiteSpace=wrap;html=1;" vertex="1" parent="1">
          <mxGeometry x="635" y="630" width="190" height="60" as="geometry" />
        </mxCell>
        <mxCell id="O2oi8l6Wpi41ya5WLqiR-31" value="Да" style="text;html=1;align=center;verticalAlign=middle;whiteSpace=wrap;rounded=0;" vertex="1" parent="1">
          <mxGeometry x="670" y="590" width="60" height="30" as="geometry" />
        </mxCell>
        <mxCell id="O2oi8l6Wpi41ya5WLqiR-33" value="Нет" style="text;html=1;align=center;verticalAlign=middle;whiteSpace=wrap;rounded=0;" vertex="1" parent="1">
          <mxGeometry x="820" y="530" width="60" height="30" as="geometry" />
        </mxCell>
      </root>
    </mxGraphModel>
  </diagram>
</mxfile>
